<?xml version="1.0" encoding="utf-8" ?><svg xmlns="http://www.w3.org/2000/svg" xmlns:xlink="http://www.w3.org/1999/xlink" width="1024" height="1024" viewBox="0 0 1024 1024"><path transform="scale(2 2)" d="M314.927 153.073C334.228 149.325 335.565 205.789 337.741 217.666C338.399 221.262 339.078 224.962 339.488 228.527C342.375 221.619 346.444 207.201 353.103 203.341C358.951 199.951 363.848 204.047 366.551 209.171C377.139 229.246 375.498 271.955 368.743 293.289C366.905 299.094 363.068 309.529 355.03 306.579C345.455 303.064 342.805 284.764 338.59 276.355L338.433 276.047C334.097 283.503 330.152 300.62 328.28 309.189C324.51 327.591 320.223 346.409 315.828 364.632C310.132 388.246 291.258 388.163 287.775 364.468C279.778 310.063 293.958 249.042 298.06 193.976C298.926 182.354 300.868 155.515 314.927 153.073ZM297.869 331.538L298.131 331.926C308.955 333.109 314.58 271.214 315.184 262.538C315.838 253.143 316.92 184.756 312.369 179.525C309.474 197.996 308.325 218.073 306.227 236.816C302.714 268.219 297.396 299.838 297.869 331.538Z"/><path fill="#EA7DFF" transform="scale(2 2)" d="M312.369 179.525C312.822 175.027 313.801 169.455 316.673 165.841C321.942 183.257 325.851 243.25 336.565 249.053C347.005 254.707 353.139 223.817 357.022 217.447C364.273 240.808 363.089 267.456 357.022 290.903C353.403 282.051 350.13 266.433 341.072 261.94C319.159 251.07 310.696 351.95 301.019 368.789C299.68 355.017 297.249 346.836 297.869 331.538L298.131 331.926C308.955 333.109 314.58 271.214 315.184 262.538C315.838 253.143 316.92 184.756 312.369 179.525Z"/><path transform="scale(2 2)" d="M179.97 241.145L179.63 241.238C168.502 244.2 175.158 227.238 176.129 223.543C182.953 200.54 186.788 176.791 193.887 153.868C197.569 143.591 203.555 129.544 215.212 126.632C240.923 120.209 224.45 190.929 222.774 201.629C220.957 213.227 219.684 224.441 218.796 236.092C216.782 265.692 220.609 327.908 205.925 353.419C203.632 357.404 197.879 359.346 194.098 356.272C187.272 350.721 186.781 336.746 185.578 328.714C182.782 310.051 178.972 286.266 169.976 269.48C163.225 278.887 161.927 308.472 148.043 307.218C131.559 299.506 132.304 208.792 148.624 203.518C159.215 200.095 166.921 223.915 162.762 225.683C159.89 224.104 159.848 212.587 153.995 208.103C148.105 220.045 149.538 254.561 149.255 270.796C153.358 264.382 155.769 232.884 170.898 250.212C188.058 269.867 195.437 229.531 197.957 219.276L204.716 190.867C207.758 177.759 212.44 161.684 216.749 149.131C216.867 145.802 216.707 142.504 216.749 139.193C196.564 153.938 197.08 225.537 179.97 241.145Z"/><path fill="#EA7DFF" transform="scale(2 2)" d="M149.255 270.796C153.358 264.382 155.769 232.884 170.898 250.212C188.058 269.867 195.437 229.531 197.957 219.276L204.716 190.867C207.758 177.759 212.44 161.684 216.749 149.131C218.209 150.799 216.4 156.649 216.212 158.859C213.857 186.601 206.922 214.36 205.857 242.601C204.813 264.174 206.306 321.187 199.02 336.936C196.607 318.886 191.283 274.445 178.052 264.022C163.703 252.717 157.806 291.351 153.995 298.472C149.884 289.176 150.107 280.61 149.255 270.796Z"/><path transform="scale(2 2)" d="M400.879 169.787C422.201 167.248 424.563 237.262 471.988 252.357C474.271 253.083 479.913 253.268 481.265 254.241L481.226 254.703L480.727 255.108C455.856 257.394 436.513 282.452 425.567 302.755C419.535 312.205 411.783 334.098 403.375 338.082C395.837 341.654 389.173 331.978 387.408 325.754C379.006 296.13 380.444 244.885 384.031 213.758C385.509 201.186 386.477 174.468 400.879 169.787ZM395.37 300.21C396.152 298.931 400.375 270.379 400.911 266.919C402.485 256.764 405.664 216.135 415.735 213.284C414.698 208.019 405.691 187.838 402.641 183.101C394.661 200.087 390.964 277.128 395.37 300.21Z"/><path fill="#EA7DFF" transform="scale(2 2)" d="M415.735 213.284C417.962 215.444 421.989 222.999 424.032 226.161C437.522 247.037 449.844 250.57 471.616 254.731C438.328 259.681 419.506 285.95 405.58 314.602C403.897 318.064 402.077 321.351 400.879 324.995C396.502 319.031 396.405 307.427 395.37 300.21C396.152 298.931 400.375 270.379 400.911 266.919C402.485 256.764 405.664 216.135 415.735 213.284Z"/><path transform="scale(2 2)" d="M421.186 237.454C427.55 240.441 427.008 277.148 420.29 281.897C413.221 281.479 414.926 241.83 421.186 237.454Z"/><path transform="scale(2 2)" d="M112.894 181.811C137.313 177.715 130.586 279.858 129.27 293.955C128.41 303.163 127.47 317.83 119.784 323.971C105.781 335.159 87.5759 303.59 81.1221 294.881C73.2157 282.475 55.6814 264.503 42.5249 257.837C40.1328 256.625 32.0607 255.416 31.3472 254.226L31.5994 253.837C33.2145 253.15 35.5612 253.245 37.3867 252.867C71.7885 245.751 89.3009 186.441 112.894 181.811ZM106.07 307.218C102.972 287.318 100.916 231.352 111.106 219.825C112.656 218.072 114.393 217.563 116.666 217.447C115.803 210.371 115.108 201.654 112.894 195.025C109.762 196.862 105.683 201.952 103.208 204.884C85.444 225.928 74.2517 252.468 42.5836 254.731C77.9064 259.066 86.1157 284.976 106.07 307.218ZM112.894 313.695L114.372 307.218C112.855 308.957 112.241 310.715 110.632 312.237L112.894 313.695Z"/><path transform="scale(2 2)" d="M92.4224 238.662C99.7583 240.366 98.1803 275.807 91.2685 278.08C84.7729 273.919 84.2638 243.899 92.4224 238.662Z"/><path fill="#EA7DFF" transform="scale(2 2)" d="M106.07 307.218C102.972 287.318 100.916 231.352 111.106 219.825C112.656 218.072 114.393 217.563 116.666 217.447C118.228 236.934 119.676 293.864 114.372 307.218C112.855 308.957 112.241 310.715 110.632 312.237C108.925 310.666 107.468 309.063 106.07 307.218Z"/><path transform="scale(2 2)" d="M269.599 114.192C277.674 124.872 273.173 199.282 271.469 214.156C270.716 220.732 268.699 232.993 279.928 228.527C278.424 236.597 278.565 246.918 277.01 253.856C279.049 256.536 278.899 258.136 278.429 261.305C275.227 282.899 274.192 304.69 272.214 326.413C270.268 346.826 266.282 391.866 259.364 411.036C252.078 431.229 240.752 423.465 236.487 407.007C223.99 366.689 228.181 280.708 234.546 238.184C235.295 233.18 236.506 231.86 241.229 230.555C251.069 233.662 245.363 246.907 244.43 255.778C240.949 288.869 239.76 324.392 242.116 357.727C242.305 360.406 242.366 363.183 242.795 365.829C252.798 351.452 255.43 239.823 257.423 216.021C260.028 184.895 266.065 153.417 269.023 122.261C269.271 119.649 269.238 116.687 269.599 114.192Z"/><path fill="#EA7DFF" transform="scale(2 2)" d="M269.599 114.192C277.674 124.872 273.173 199.282 271.469 214.156C270.716 220.732 268.699 232.993 279.928 228.527C278.424 236.597 278.565 246.918 277.01 253.856C264.902 248.061 266.027 264.435 264.872 271.872C260.443 313.263 258.167 354.911 250.034 395.834C249.589 398.073 249.164 400.193 248.919 402.473C245.607 396.02 242.226 371.76 242.795 365.829C252.798 351.452 255.43 239.823 257.423 216.021C260.028 184.895 266.065 153.417 269.023 122.261C269.271 119.649 269.238 116.687 269.599 114.192Z"/><path transform="scale(2 2)" d="M265.502 98.2401C264.515 101.016 263.714 106.223 263.341 109.187C258.898 144.513 248.198 178.59 244.479 214.01C243.832 220.163 230.235 225.811 233.137 205.075C237.68 172.615 246.588 141.624 250.799 108.991C251.952 100.056 255.044 79.4309 270.363 85.8252C291.869 94.8018 289.969 221.577 279.928 228.527C268.699 232.993 270.716 220.732 271.469 214.156C273.173 199.282 277.674 124.872 269.599 114.192C269.691 109.676 267.236 102.536 265.502 98.2401Z"/><path transform="scale(2 2)" d="M153.995 319.454C162.346 320.04 156.093 349.774 153.995 355.168L153.547 355.398C151.049 354.073 144.746 322.949 153.995 319.454Z"/><path transform="scale(2 2)" d="M359.005 321.045C368.703 319.782 361.972 354.63 360.329 357.306C355.774 355.917 354.386 327.356 355.99 323.296C356.462 322.1 357.93 321.544 359.005 321.045Z"/><path transform="scale(2 2)" d="M150.086 151.567C154.561 151.464 156.044 166.584 156.797 170.711C157.712 175.734 158.799 181.428 155.696 185.914C146.418 194.063 149.423 153.592 150.086 151.567Z"/><path transform="scale(2 2)" d="M359.005 151.567C362.584 153.469 366.315 182.462 360.329 186.94C351.008 186.22 357.006 156.597 359.005 151.567Z"/></svg>